HIERARCHY
ROOT Hips
{
	OFFSET 0.000000 83.214638 0.000000
	CHANNELS 6 Xposition Yposition Zposition Xrotation Yrotation Zrotation
	JOINT Pelvis
	{
		OFFSET 0.000000 0.000000 0.000000
		CHANNELS 3 Xrotation Yrotation Zrotation
		JOINT LeftUpLeg
		{
			OFFSET 8.479700 -4.795502 -0.379100
			CHANNELS 3 Xrotation Yrotation Zrotation
			JOINT LeftLeg
			{
				OFFSET 0.024144 -32.555107 0.112900
				CHANNELS 3 Xrotation Yrotation Zrotation
				JOINT LeftFoot
				{
					OFFSET -0.024144 -32.638630 -3.012600
					CHANNELS 3 Xrotation Yrotation Zrotation
					JOINT LeftToeBase
					{
						OFFSET 0.970200 -13.225400 11.864200
						CHANNELS 3 Xrotation Yrotation Zrotation
						End Site
						{
							OFFSET 0.000000 12.319262 0.000000
						}
					}
					JOINT LFootTongue
					{
						OFFSET 1.142400 -1.059800 6.665200
						CHANNELS 3 Xrotation Yrotation Zrotation
						End Site
						{
							OFFSET 0.000000 12.319262 0.000000
						}
					}
				}
				JOINT LeftPantLeg
				{
					OFFSET 0.918482 -16.533964 -2.284700
					CHANNELS 3 Xrotation Yrotation Zrotation
					End Site
					{
						OFFSET 0.350399 24.744368 0.000000
					}
				}
			}
		}
		JOINT RightUpLeg
		{
			OFFSET -8.479700 -4.795502 -0.379100
			CHANNELS 3 Xrotation Yrotation Zrotation
			JOINT RightLeg
			{
				OFFSET -0.023144 -32.555092 0.112900
				CHANNELS 3 Xrotation Yrotation Zrotation
				JOINT RightFoot
				{
					OFFSET 0.023144 -32.638641 -3.012700
					CHANNELS 3 Xrotation Yrotation Zrotation
					JOINT RightToeBase
					{
						OFFSET -0.970200 -13.225400 11.864200
						CHANNELS 3 Xrotation Yrotation Zrotation
						End Site
						{
							OFFSET 0.000000 12.319244 0.000000
						}
					}
					JOINT RFootTongue
					{
						OFFSET -1.142200 -1.059800 6.665200
						CHANNELS 3 Xrotation Yrotation Zrotation
						End Site
						{
							OFFSET 0.000000 12.319243 0.000000
						}
					}
				}
				JOINT RightPantLeg
				{
					OFFSET -0.919482 -16.533978 -2.284800
					CHANNELS 3 Xrotation Yrotation Zrotation
					End Site
					{
						OFFSET -0.350400 24.744419 0.000000
					}
				}
			}
		}
	}
	JOINT Spine
	{
		OFFSET 0.000000 7.722000 1.166200
		CHANNELS 3 Xrotation Yrotation Zrotation
		JOINT Spine1
		{
			OFFSET 0.000000 12.024101 0.248800
			CHANNELS 3 Xrotation Yrotation Zrotation
			JOINT Spine2
			{
				OFFSET 0.000000 11.502998 -0.491200
				CHANNELS 3 Xrotation Yrotation Zrotation
				JOINT Neck
				{
					OFFSET 0.000000 18.430702 -3.123100
					CHANNELS 3 Xrotation Yrotation Zrotation
					JOINT Head
					{
						OFFSET 0.000000 9.051102 1.034000
						CHANNELS 3 Xrotation Yrotation Zrotation
						JOINT HairB
						{
							OFFSET 0.208400 24.786102 24.822300
							CHANNELS 3 Xrotation Yrotation Zrotation
							End Site
							{
								OFFSET 0.000000 32.263779 0.000000
							}
						}
						JOINT HairA
						{
							OFFSET -7.081100 24.428299 23.196600
							CHANNELS 3 Xrotation Yrotation Zrotation
							End Site
							{
								OFFSET 0.000000 32.263779 0.000000
							}
						}
						JOINT Hat
						{
							OFFSET 16.728800 15.048294 -15.439601
							CHANNELS 3 Xrotation Yrotation Zrotation
							End Site
							{
								OFFSET 0.000000 32.263779 0.000000
							}
						}
					}
				}
				JOINT LeftShoulder
				{
					OFFSET 6.197800 13.665199 -4.064700
					CHANNELS 3 Xrotation Yrotation Zrotation
					JOINT LeftArm
					{
						OFFSET 7.778100 -0.187103 -1.709300
						CHANNELS 3 Xrotation Yrotation Zrotation
						JOINT LeftForeArm
						{
							OFFSET 22.049376 0.000000 0.000000
							CHANNELS 3 Xrotation Yrotation Zrotation
							JOINT LeftHand
							{
								OFFSET 23.009392 0.000000 0.000000
								CHANNELS 3 Xrotation Yrotation Zrotation
								JOINT LeftHandThumb1
								{
									OFFSET 3.507191 -2.063065 3.133727
									CHANNELS 3 Xrotation Yrotation Zrotation
									JOINT LeftHandThumb2
									{
										OFFSET 3.101337 -1.790558 1.790558
										CHANNELS 3 Xrotation Yrotation Zrotation
										JOINT LeftHandThumb3
										{
											OFFSET 3.058640 -1.765907 1.765906
											CHANNELS 3 Xrotation Yrotation Zrotation
											End Site
											{
												OFFSET -0.415260 3.926476 -0.049563
											}
										}
									}
								}
								JOINT LeftHandIndex1
								{
									OFFSET 11.334419 -0.901459 3.706815
									CHANNELS 3 Xrotation Yrotation Zrotation
									JOINT LeftHandIndex2
									{
										OFFSET 3.283112 0.000000 0.000000
										CHANNELS 3 Xrotation Yrotation Zrotation
										JOINT LeftHandIndex3
										{
											OFFSET 3.323853 0.000000 0.000000
											CHANNELS 3 Xrotation Yrotation Zrotation
											End Site
											{
												OFFSET -1.135597 3.097809 0.402452
											}
										}
									}
								}
								JOINT LeftHandMiddle1
								{
									OFFSET 11.335861 0.000000 0.000000
									CHANNELS 3 Xrotation Yrotation Zrotation
									JOINT LeftHandMiddle2
									{
										OFFSET 3.410492 0.000000 0.000000
										CHANNELS 3 Xrotation Yrotation Zrotation
										JOINT LeftHandMiddle3
										{
											OFFSET 3.312172 0.000000 0.000000
											CHANNELS 3 Xrotation Yrotation Zrotation
											End Site
											{
												OFFSET -1.150200 3.080154 0.400270
											}
										}
									}
								}
								JOINT LeftHandRing1
								{
									OFFSET 11.514786 -0.013176 -3.003090
									CHANNELS 3 Xrotation Yrotation Zrotation
									JOINT LeftHandRing2
									{
										OFFSET 3.053307 0.000000 0.000000
										CHANNELS 3 Xrotation Yrotation Zrotation
										JOINT LeftHandRing3
										{
											OFFSET 3.295807 0.000000 0.000000
											CHANNELS 3 Xrotation Yrotation Zrotation
											End Site
											{
												OFFSET -1.281006 3.013344 0.375733
											}
										}
									}
								}
								JOINT LeftHandPinky1
								{
									OFFSET 10.518692 -0.960396 -5.730441
									CHANNELS 3 Xrotation Yrotation Zrotation
									JOINT LeftHandPinky2
									{
										OFFSET 2.861649 0.000000 0.000000
										CHANNELS 3 Xrotation Yrotation Zrotation
										JOINT LeftHandPinky3
										{
											OFFSET 2.863380 0.000000 0.000000
											CHANNELS 3 Xrotation Yrotation Zrotation
											End Site
											{
												OFFSET -0.843597 2.711159 0.369971
											}
										}
									}
								}
							}
							JOINT LSleeve
							{
								OFFSET 6.676277 -0.344902 -1.011730
								CHANNELS 3 Xrotation Yrotation Zrotation
								End Site
								{
									OFFSET 0.000000 14.885353 0.000000
								}
							}
						}
					}
				}
				JOINT RightShoulder
				{
					OFFSET -6.197800 13.665199 -4.064700
					CHANNELS 3 Xrotation Yrotation Zrotation
					JOINT RightArm
					{
						OFFSET -7.778100 -0.187103 -1.709300
						CHANNELS 3 Xrotation Yrotation Zrotation
						JOINT RightForeArm
						{
							OFFSET -22.049376 0.000000 0.000000
							CHANNELS 3 Xrotation Yrotation Zrotation
							JOINT RightHand
							{
								OFFSET -23.009392 0.000000 0.000000
								CHANNELS 3 Xrotation Yrotation Zrotation
								JOINT RightHandThumb1
								{
									OFFSET -3.507191 -2.063065 3.133727
									CHANNELS 3 Xrotation Yrotation Zrotation
									JOINT RightHandThumb2
									{
										OFFSET -3.101337 -1.790558 1.790558
										CHANNELS 3 Xrotation Yrotation Zrotation
										JOINT RightHandThumb3
										{
											OFFSET -3.058640 -1.765907 1.765906
											CHANNELS 3 Xrotation Yrotation Zrotation
											End Site
											{
												OFFSET 0.415260 3.926476 -0.049563
											}
										}
									}
								}
								JOINT RightHandIndex1
								{
									OFFSET -11.334419 -0.901459 3.706815
									CHANNELS 3 Xrotation Yrotation Zrotation
									JOINT RightHandIndex2
									{
										OFFSET -3.283112 0.000000 0.000000
										CHANNELS 3 Xrotation Yrotation Zrotation
										JOINT RightHandIndex3
										{
											OFFSET -3.323853 0.000000 0.000000
											CHANNELS 3 Xrotation Yrotation Zrotation
											End Site
											{
												OFFSET 1.135597 3.097809 0.402452
											}
										}
									}
								}
								JOINT RightHandMiddle1
								{
									OFFSET -11.335861 0.000000 0.000000
									CHANNELS 3 Xrotation Yrotation Zrotation
									JOINT RightHandMiddle2
									{
										OFFSET -3.410492 0.000000 0.000000
										CHANNELS 3 Xrotation Yrotation Zrotation
										JOINT RightHandMiddle3
										{
											OFFSET -3.312172 0.000000 0.000000
											CHANNELS 3 Xrotation Yrotation Zrotation
											End Site
											{
												OFFSET 1.150200 3.080154 0.400270
											}
										}
									}
								}
								JOINT RightHandRing1
								{
									OFFSET -11.514786 -0.013176 -3.003090
									CHANNELS 3 Xrotation Yrotation Zrotation
									JOINT RightHandRing2
									{
										OFFSET -3.053307 0.000000 0.000000
										CHANNELS 3 Xrotation Yrotation Zrotation
										JOINT RightHandRing3
										{
											OFFSET -3.295807 0.000000 0.000000
											CHANNELS 3 Xrotation Yrotation Zrotation
											End Site
											{
												OFFSET 1.281006 3.013344 0.375733
											}
										}
									}
								}
								JOINT RightHandPinky1
								{
									OFFSET -10.518692 -0.960396 -5.730441
									CHANNELS 3 Xrotation Yrotation Zrotation
									JOINT RightHandPinky2
									{
										OFFSET -2.861649 0.000000 0.000000
										CHANNELS 3 Xrotation Yrotation Zrotation
										JOINT RightHandPinky3
										{
											OFFSET -2.863380 0.000000 0.000000
											CHANNELS 3 Xrotation Yrotation Zrotation
											End Site
											{
												OFFSET 0.843597 2.711159 0.369971
											}
										}
									}
								}
							}
							JOINT RSleeve
							{
								OFFSET -6.676277 -0.344902 -1.011730
								CHANNELS 3 Xrotation Yrotation Zrotation
								End Site
								{
									OFFSET 0.000000 14.885353 0.000000
								}
							}
						}
					}
				}
				JOINT Backpack
				{
					OFFSET 0.000000 -2.471497 36.677502
					CHANNELS 3 Xrotation Yrotation Zrotation
					End Site
					{
						OFFSET 0.000000 20.427315 0.000000
					}
				}
				JOINT Hood
				{
					OFFSET 0.000000 18.754097 -10.431000
					CHANNELS 3 Xrotation Yrotation Zrotation
					JOINT Hood1
					{
						OFFSET 0.000000 -5.011002 -7.685901
						CHANNELS 3 Xrotation Yrotation Zrotation
						End Site
						{
							OFFSET 0.000000 9.175140 0.000000
						}
					}
				}
				JOINT LHoodieString
				{
					OFFSET 5.250500 16.397697 3.089900
					CHANNELS 3 Xrotation Yrotation Zrotation
					JOINT LHoodieString1
					{
						OFFSET 0.257700 -6.364304 3.694600
						CHANNELS 3 Xrotation Yrotation Zrotation
						JOINT LHoodieString2
						{
							OFFSET 0.000000 -9.643799 2.679100
							CHANNELS 3 Xrotation Yrotation Zrotation
							End Site
							{
								OFFSET 0.000000 10.009018 0.000000
							}
						}
					}
				}
				JOINT RHoodieString
				{
					OFFSET -5.250500 16.397697 3.089900
					CHANNELS 3 Xrotation Yrotation Zrotation
					JOINT RHoodieString1
					{
						OFFSET -0.257700 -6.364304 3.694600
						CHANNELS 3 Xrotation Yrotation Zrotation
						JOINT RHoodieString2
						{
							OFFSET 0.000000 -9.643799 2.679100
							CHANNELS 3 Xrotation Yrotation Zrotation
							End Site
							{
								OFFSET 0.000000 10.009018 0.000000
							}
						}
					}
				}
			}
			JOINT LBackpack_Strap
			{
				OFFSET 15.223200 -7.719803 -6.610900
				CHANNELS 3 Xrotation Yrotation Zrotation
				End Site
				{
					OFFSET 0.000000 16.040596 0.000000
				}
			}
			JOINT RBackpack_Strap
			{
				OFFSET -15.223000 -7.719803 -6.610900
				CHANNELS 3 Xrotation Yrotation Zrotation
				End Site
				{
					OFFSET 0.000000 16.040596 0.000000
				}
			}
		}
	}
	JOINT BoyFacialAnim_Joint
	{
		OFFSET 1.000000 -82.208099 -1.550900
		CHANNELS 3 Xrotation Yrotation Zrotation
		End Site
		{
			OFFSET 0.000000 30.012791 0.000000
		}
	}
}
MOTION
Frames: 4
Frame Time: 0.033333
-2.704965 11.272408 2.869492 83.624233 -7.811441 -2.118373 0.000000 -0.000000 -0.000000 -4.199082 32.026788 12.209762 19.092156 6.448622 -5.683698 -24.283187 28.427392 30.583432 -0.000002 -0.000000 0.000001 -0.000002 -0.000000 0.000002 -0.000001 -0.000001 -0.000000 -46.362767 -31.477326 -44.925938 49.277363 6.652657 -3.689548 8.495878 23.697813 4.969836 -0.000002 0.000001 -0.000000 -0.000002 0.000001 -0.000000 0.000001 0.000004 -0.000001 4.652782 -0.135049 -2.353588 -5.329266 -5.633019 1.928677 -4.834865 -5.868985 1.138475 -32.841534 -3.516112 17.819296 -9.606180 21.614682 3.683289 0.000000 -0.000000 -0.000000 0.000000 -0.000000 -0.000000 0.000000 -0.000000 -0.000000 -28.609827 -32.913865 34.090488 -56.181236 3.983375 -19.893717 0.000196 -103.718820 0.000191 -110.639120 -37.484683 52.114097 2.802332 4.628013 4.519695 17.784674 0.826191 6.913972 0.000000 0.000001 -0.000000 -1.151191 2.120393 -32.296215 2.968633 5.093955 -60.443479 -0.000000 -0.000001 -0.000002 0.417813 5.300366 -48.298532 3.917776 5.523516 -70.674727 -0.000000 0.000000 -0.000003 -0.893057 5.116687 -59.203888 3.504167 5.361260 -66.316062 -0.000001 0.000001 -0.000002 -9.700107 3.193179 -71.206320 3.318760 5.276440 -64.315930 -0.000001 0.000001 -0.000004 -0.000000 -0.000001 0.000004 -26.513157 34.721400 17.264640 -50.595651 16.407931 18.946783 -0.000003 120.497678 0.000008 -61.698451 -7.734053 -2.933403 -3.889081 -9.713329 -1.315668 23.584636 -11.963380 -20.236616 -0.000000 0.000000 -0.000001 -0.743710 3.455335 7.732386 0.530358 -2.160262 27.584404 0.000001 -0.000001 0.000005 4.555810 -8.705111 44.901889 6.316172 -4.352284 110.889296 0.000001 0.000001 -0.000000 -1.563496 -3.509601 54.264712 5.589366 -4.563140 101.558916 0.000000 0.000001 -0.000001 -3.836447 -3.745945 67.199684 4.384090 -4.649202 86.634461 0.000002 -0.000001 -0.000002 0.000001 0.000002 -0.000001 -0.000000 -0.000000 0.000000 -0.000000 -0.000000 0.000000 -0.000000 -0.000000 0.000000 -0.000000 -0.000000 0.000000 -0.000000 -0.000000 -0.000000 -0.000000 -0.000002 -0.000000 -0.000000 -0.000000 0.000000 -0.000000 -0.000000 -0.000000 -0.000000 -0.000002 -0.000000 -0.000000 0.000001 0.000000 -0.000000 0.000001 0.000000 0.000000 -0.000000 -0.000000 
-2.266186 11.290993 3.186882 84.080100 -8.012225 -2.143964 -0.000000 0.000001 -0.000000 -5.548484 32.916686 12.796079 18.426385 7.780616 -4.879307 -26.583989 28.896714 30.522391 0.000000 0.000000 0.000001 0.000000 0.000000 -0.000000 -0.000000 0.000001 -0.000000 -48.370440 -31.078689 -46.605721 48.688659 6.864648 -3.885749 8.463586 22.583865 5.685367 0.000001 -0.000001 -0.000000 0.000001 -0.000001 -0.000000 0.000000 0.000001 0.000000 4.347264 0.418681 -2.315355 -5.520204 -5.476987 1.712046 -5.022800 -5.714871 0.917728 -32.784741 -3.549495 17.958444 -9.250696 21.604807 2.754898 0.000001 0.000001 0.000001 0.000001 0.000001 0.000001 0.000001 0.000001 0.000001 -29.090308 -32.248318 34.174015 -56.173825 2.459575 -22.605227 -0.000012 -100.962313 0.000009 -112.602560 -35.883871 48.260501 3.869940 6.281439 3.913911 18.075571 -0.320420 7.268822 0.000001 -0.000000 -0.000001 -1.182561 2.080886 -32.377808 2.966368 5.092700 -60.417907 -0.000001 -0.000001 -0.000000 0.745740 5.595298 -48.382048 3.834323 5.493636 -69.805544 0.000001 -0.000001 0.000002 -0.792142 5.130898 -58.681003 3.478231 5.349866 -66.038299 -0.000000 0.000001 -0.000005 -9.537888 3.409822 -71.794488 3.303339 5.269017 -64.148146 -0.000000 0.000001 -0.000000 -0.000001 0.000003 0.000002 -25.719446 32.985900 18.115965 -48.939764 19.048192 17.331911 -0.000041 119.948449 0.000021 -61.206357 -5.345113 -5.862628 -3.877480 -9.470964 -1.126828 23.223265 -11.481017 -20.372733 -0.000000 -0.000000 -0.000000 -0.693528 3.472843 7.264482 0.507899 -2.116741 26.982379 0.000000 -0.000002 0.000003 4.470793 -8.719250 43.991951 6.305453 -4.356328 110.748416 0.000002 0.000000 0.000001 -1.459428 -3.501211 53.355310 5.561633 -4.568699 101.210617 -0.000000 0.000001 0.000002 -3.292795 -3.764517 65.553799 4.347475 -4.646893 86.182692 -0.000000 -0.000001 -0.000002 -0.000000 -0.000002 -0.000001 -0.000002 0.000002 0.000000 -0.000002 0.000002 0.000000 -0.000002 0.000002 0.000000 -0.000002 0.000002 0.000000 -0.000002 0.000002 0.000000 -0.000001 -0.000000 -0.000000 -0.000002 0.000002 0.000000 -0.000002 0.000002 0.000000 -0.000001 -0.000000 -0.000000 -0.000001 -0.000000 0.000000 -0.000001 -0.000000 0.000000 -0.000000 0.000001 -0.000000 
-1.820951 11.269310 3.469826 84.213507 -8.518212 -2.231687 0.000000 0.000001 0.000000 -7.235096 33.445319 13.609007 17.733603 8.872108 -3.873490 -27.972080 29.067656 30.388314 -0.000000 0.000001 0.000000 -0.000000 0.000001 0.000000 -0.000000 0.000000 0.000000 -49.829942 -30.960243 -47.866399 47.932656 7.202959 -4.020248 8.110874 21.074052 6.443951 0.000001 0.000003 0.000000 0.000001 0.000003 0.000000 0.000001 -0.000003 0.000000 4.086153 1.231503 -2.242186 -5.642508 -5.251776 1.517343 -5.137266 -5.491779 0.717135 -32.712505 -3.617387 18.088733 -8.748385 21.407797 2.017347 0.000000 -0.000000 -0.000000 0.000000 -0.000000 -0.000000 0.000000 -0.000000 -0.000000 -29.621578 -30.960674 34.410018 -57.677601 0.273330 -26.256687 0.006110 -94.872222 0.006087 -116.968219 -31.227403 41.766364 4.469007 6.685706 3.595501 18.033965 -0.798168 7.458993 0.000000 0.000000 -0.000001 -1.337456 1.734239 -31.688936 2.970925 5.095256 -60.469318 -0.000000 0.000001 -0.000003 1.034629 5.841983 -48.086922 3.716986 5.449271 -68.574963 0.000000 -0.000001 0.000002 -0.811351 5.050235 -57.899643 3.397167 5.313251 -65.165920 -0.000001 0.000000 -0.000000 -9.771537 3.308348 -71.716269 3.257926 5.246874 -63.652882 0.000000 0.000001 -0.000000 -0.000000 0.000003 0.000004 -25.000383 31.251046 19.251930 -47.725991 23.881873 16.582309 -0.000003 118.732662 -0.000004 -59.724950 -4.356263 -11.675197 -3.265874 -9.342557 -0.323031 22.839799 -11.303371 -20.455836 0.000000 0.000000 -0.000000 -0.664149 3.543415 6.929462 0.498172 -2.097553 26.718008 -0.000001 0.000000 0.000005 4.302733 -8.619356 43.313098 6.295046 -4.360243 110.611444 0.000001 0.000000 0.000003 -1.364151 -3.498818 52.536190 5.548169 -4.571330 101.041522 0.000002 0.000001 0.000002 -2.751045 -3.817353 63.897642 4.315938 -4.644693 85.793309 -0.000001 -0.000000 0.000000 -0.000001 0.000001 -0.000002 0.000000 0.000000 -0.000000 0.000000 0.000000 -0.000000 0.000000 0.000000 -0.000000 0.000000 0.000000 -0.000000 0.000000 0.000000 0.000000 -0.000001 -0.000001 -0.000001 0.000000 0.000000 -0.000000 0.000000 0.000000 0.000000 -0.000001 -0.000001 -0.000001 0.000001 0.000001 -0.000000 0.000001 0.000001 -0.000000 0.000000 0.000001 0.000000 
-1.398423 11.213982 3.675446 83.889285 -9.286272 -2.392341 -0.000000 -0.000000 0.000000 -8.995023 34.075708 16.107116 18.248683 7.268372 -5.083192 -27.384660 27.858132 30.650064 -0.000000 -0.000001 -0.000000 -0.000000 -0.000001 -0.000001 0.000001 0.000005 -0.000000 -50.757448 -31.133143 -48.867691 46.990725 7.664436 -4.123115 7.473018 19.285638 7.404109 -0.000000 0.000000 0.000000 -0.000000 0.000000 0.000000 0.000001 -0.000001 0.000000 4.053932 2.235602 -2.260722 -5.683626 -4.971354 1.371889 -5.168016 -5.213012 0.562273 -32.652730 -3.685841 18.161866 -8.325153 21.352346 1.607403 -0.000002 -0.000000 -0.000000 -0.000002 -0.000000 -0.000000 -0.000002 -0.000000 -0.000000 -30.042153 -29.795225 34.612697 -59.518699 -2.381041 -31.020387 -0.003719 -87.751053 -0.003818 -120.520587 -25.646947 35.243114 5.613814 7.137016 3.092057 17.821975 -1.374176 7.727188 -0.000001 0.000001 0.000000 -1.475757 1.390700 -30.945996 2.980695 5.100768 -60.579338 -0.000001 -0.000000 -0.000002 1.344747 6.113085 -47.796281 3.560360 5.385446 -66.916162 -0.000000 -0.000001 0.000000 -0.924830 4.906495 -57.101761 3.255444 5.245637 -63.625746 0.000000 0.000001 -0.000002 -10.272221 2.942022 -71.038789 3.208732 5.222311 -63.113523 -0.000001 -0.000000 -0.000000 -0.000000 -0.000002 0.000004 -24.570101 29.593400 21.106992 -46.205267 28.046638 16.177761 0.000034 117.673737 -0.000042 -57.356800 -4.421341 -17.439855 -2.092158 -9.272286 1.003425 22.378333 -11.332287 -20.506289 0.000000 0.000001 -0.000002 -0.651539 3.665751 6.699199 0.503487 -2.108060 26.862854 -0.000000 0.000000 0.000005 4.090862 -8.438432 42.904564 6.286326 -4.363505 110.496902 0.000000 0.000001 -0.000000 -1.282411 -3.510659 51.956139 5.539811 -4.572945 100.936877 -0.000000 0.000000 0.000000 -2.296506 -3.892660 62.526284 4.289720 -4.642693 85.469599 -0.000001 -0.000000 0.000000 0.000001 0.000001 -0.000000 -0.000000 0.000001 0.000000 -0.000000 0.000001 0.000000 -0.000000 0.000001 0.000000 -0.000000 0.000001 0.000000 -0.000000 0.000001 0.000000 -0.000000 0.000001 -0.000000 -0.000000 0.000001 0.000000 -0.000000 0.000001 0.000000 -0.000000 0.000001 -0.000000 0.000001 0.000000 0.000000 0.000001 0.000000 0.000000 -0.000000 -0.000000 0.000000 
